<svg width="66" height="66" viewBox="0 0 66 66" fill="none" xmlns="http://www.w3.org/2000/svg">
<rect x="0.5" y="0.5" width="65" height="65" stroke="#333333"/>
<circle cx="32.5464" cy="35.5464" r="7.54641" fill="#45AD9A"/>
<circle cx="27.6405" cy="23.6405" r="1.14052" stroke="#333333"/>
<line y1="-0.5" x2="14.3822" y2="-0.5" transform="matrix(0.635708 -0.771929 0.828555 0.559908 35.0469 41.0312)" stroke="#333333"/>
<path d="M38.0923 36.6889L42.0517 37.3315" stroke="#333333"/>
<path d="M41.9062 31.9515L40.2326 29.2848" stroke="#333333"/>
<path d="M33.0161 31.98C30.9922 35.9602 32.5356 39.0173 33.0161 43C37.2633 41.755 42.0912 39.3281 43.3176 38.1341C45.2827 36.2212 45.9787 35.1557 46.9974 33.2683C47.8727 31.6463 48.3225 27.3617 47.7332 24C45.5608 26.2961 39.9788 27.3024 39.3935 27.4756C35.1843 28.7213 34.5203 29.418 33.0161 31.98Z" stroke="#333333"/>
<line y1="-0.5" x2="6.05565" y2="-0.5" transform="matrix(-0.815552 -0.578683 -0.65317 0.757211 29.4844 40.4805)" stroke="#333333"/>
<path d="M27.7607 39.049L26.2225 39.7464" stroke="#333333"/>
<path d="M26.6928 37.5458L27.0791 36.2777" stroke="#333333"/>
<path d="M29.2939 36.5858C30.587 37.9716 30.2722 39.3906 30.5081 41.0641C28.5775 41.0444 26.2715 40.6109 25.6221 40.2661C24.5816 39.7137 24.1703 39.3604 23.5322 38.71C22.9839 38.151 22.3218 36.4613 22.2003 35.0277C23.3706 35.7122 25.8385 35.482 26.1047 35.4854C28.0193 35.5098 28.3765 35.7169 29.2939 36.5858Z" stroke="#333333"/>
</svg>
