<svg width="66" height="66" viewBox="0 0 66 66" fill="none" xmlns="http://www.w3.org/2000/svg">
<circle cx="32.5464" cy="33.5464" r="7.54641" fill="#45AD9A"/>
<path d="M39.5976 39.7792C35.7581 42.1402 31.0376 43.8346 27.5135 44.4107C28.249 42.8853 28.5884 41.5818 28.6115 40.4044C28.639 39.0003 28.2156 37.8263 27.5658 36.7221C27.0342 35.8189 26.3357 34.9395 25.6055 34.0202C25.4578 33.8342 25.3087 33.6466 25.1595 33.4568C24.2624 32.3157 23.3289 31.062 22.519 29.517C21.015 26.6483 22.5129 23.6792 25.2315 22.6431C27.9033 21.6249 31.9046 22.4757 35.245 27.7548L35.6068 28.3267L36.0472 27.8127C37.5811 26.0224 39.9004 25.3085 41.9384 25.7479C43.9497 26.1815 45.7328 27.7487 46.2067 30.6469C46.4726 32.2728 45.8988 33.8927 44.698 35.4564C43.4954 37.0223 41.6924 38.491 39.5976 39.7792Z" stroke="#333333"/>
<circle cx="47.6405" cy="21.6405" r="1.14052" stroke="#333333"/>
<rect x="0.5" y="0.5" width="65" height="65" stroke="#333333"/>
</svg>
