<svg width="66" height="66" viewBox="0 0 66 66" fill="none" xmlns="http://www.w3.org/2000/svg">
<rect x="0.5" y="0.5" width="65" height="65" stroke="#333333"/>
<circle cx="32.5464" cy="35.5464" r="7.54641" fill="#45AD9A"/>
<circle cx="33.6405" cy="19.6405" r="1.14052" stroke="#333333"/>
<line y1="-0.5" x2="18.8766" y2="-0.5" transform="matrix(0.635708 -0.771929 0.828555 0.559908 27 45.418)" stroke="#333333"/>
<path d="M30.9984 39.7143L36.1951 40.5577" stroke="#333333"/>
<path d="M36 33.502L33.8033 30.002" stroke="#333333"/>
<path d="M24.3336 33.5C21.6773 38.7371 23.703 42.7596 24.3336 48C29.9081 46.3618 36.2447 43.1685 37.8544 41.5976C40.4335 39.0806 41.3471 37.6786 42.6841 35.1951C43.8329 33.061 44.4233 27.4233 43.6499 23C40.7985 26.0212 33.4721 27.3453 32.704 27.5732C27.1795 29.2123 26.3079 30.1289 24.3336 33.5Z" stroke="#333333"/>
</svg>
