<svg width="27" height="27" viewBox="0 0 27 27" fill="none" xmlns="http://www.w3.org/2000/svg">
<g clip-path="url(#clip0)">
<path d="M26.9939 26.9988V26.9977H27.0007V17.0954C27.0007 12.2512 25.9578 8.51953 20.2945 8.51953C17.572 8.51953 15.745 10.0135 14.9992 11.4299H14.9204V8.97178H9.55078V26.9977H15.142V18.0719C15.142 15.7218 15.5875 13.4493 18.4979 13.4493C21.3655 13.4493 21.4083 16.1313 21.4083 18.2227V26.9988H26.9939Z" fill="white"/>
<path d="M0.445312 8.97266H6.04331V26.9985H0.445312V8.97266Z" fill="white"/>
<path d="M3.24225 0C1.45238 0 0 1.45238 0 3.24225C0 5.03212 1.45238 6.51487 3.24225 6.51487C5.03212 6.51487 6.4845 5.03212 6.4845 3.24225C6.48337 1.45238 5.031 0 3.24225 0V0Z" fill="white"/>
</g>
<defs>
<clipPath id="clip0">
<rect width="27" height="27" fill="white"/>
</clipPath>
</defs>
</svg>
