<svg width="27" height="27" viewBox="0 0 27 27" fill="none" xmlns="http://www.w3.org/2000/svg">
<g clip-path="url(#clip0)">
<path d="M13.5059 6.57031C9.6775 6.57031 6.57812 9.67306 6.57812 13.4981C6.57812 17.3264 9.68087 20.4258 13.5059 20.4258C17.3342 20.4258 20.4336 17.3231 20.4336 13.4981C20.4336 9.66969 17.3309 6.57031 13.5059 6.57031V6.57031ZM13.5059 17.9947C11.0207 17.9947 9.00925 15.9821 9.00925 13.4981C9.00925 11.0141 11.0219 9.00144 13.5059 9.00144C15.9899 9.00144 18.0025 11.0141 18.0025 13.4981C18.0036 15.9821 15.991 17.9947 13.5059 17.9947V17.9947Z" fill="white"/>
<path d="M19.0668 0.0887162C16.5828 -0.0271588 10.4301 -0.0215338 7.94388 0.0887162C5.75913 0.191091 3.83201 0.718716 2.27838 2.27234C-0.318119 4.86884 0.0137557 8.36759 0.0137557 13.4987C0.0137557 18.7502 -0.278744 22.168 2.27838 24.7251C4.88501 27.3306 8.43438 26.9897 13.5048 26.9897C18.7068 26.9897 20.5023 26.9931 22.3416 26.281C24.8425 25.3101 26.7303 23.0747 26.9148 19.0596C27.0318 16.5745 27.025 10.423 26.9148 7.93672C26.692 3.19709 24.1484 0.322716 19.0668 0.0887162V0.0887162ZM22.9986 23.0072C21.2965 24.7093 18.9351 24.5575 13.4721 24.5575C7.84713 24.5575 5.59151 24.6407 3.94563 22.9903C2.05001 21.1037 2.39313 18.0741 2.39313 13.4807C2.39313 7.26509 1.75526 2.78872 7.99338 2.46922C9.42663 2.41859 9.84851 2.40172 13.4564 2.40172L13.507 2.43547C19.5021 2.43547 24.2058 1.80772 24.4881 8.04472C24.5523 9.46784 24.5669 9.89534 24.5669 13.4976C24.5658 19.0573 24.6715 21.3265 22.9986 23.0072V23.0072Z" fill="white"/>
<path d="M20.7087 7.91352C21.6028 7.91352 22.3276 7.18873 22.3276 6.29465C22.3276 5.40057 21.6028 4.67578 20.7087 4.67578C19.8146 4.67578 19.0898 5.40057 19.0898 6.29465C19.0898 7.18873 19.8146 7.91352 20.7087 7.91352Z" fill="white"/>
</g>
<defs>
<clipPath id="clip0">
<rect width="27" height="27" fill="white"/>
</clipPath>
</defs>
</svg>
