<svg width="38" height="49" viewBox="0 0 38 49" fill="none" xmlns="http://www.w3.org/2000/svg">
<circle cx="19" cy="17" r="14.4945" stroke="#333333" stroke-width="1.01096"/>
<circle cx="19.004" cy="16.9962" r="11.129" fill="#45AD9A"/>
<path d="M19 48L19 14" stroke="#333333" stroke-width="1.01096"/>
<path d="M19.0078 26.1893L12.2336 20.3828" stroke="#333333" stroke-width="1.01096"/>
<circle r="2.97504" transform="matrix(-1 0 0 1 12.5926 40.8059)" stroke="#333333" stroke-width="0.396073"/>
<circle r="2.35421" transform="matrix(-1 0 0 1 12.5911 40.8073)" fill="#45AD9A"/>
<circle r="0.313749" transform="matrix(-1 0 0 1 10.121 44.3633)" stroke="#333333" stroke-width="0.396073"/>
<path d="M12.6445 47.4609V40.0895" stroke="#333333" stroke-width="0.396073"/>
<path d="M12.5898 46.2166L11.0545 44.9883" stroke="#333333" stroke-width="0.396073"/>
<path d="M12.5898 42.7478L14.0228 41.5195" stroke="#333333" stroke-width="0.396073"/>
<circle cx="26.5832" cy="37.1496" r="2.97504" stroke="#333333" stroke-width="0.396073"/>
<circle cx="26.5847" cy="37.1511" r="2.35421" fill="#45AD9A"/>
<circle cx="29.0548" cy="40.7071" r="0.313749" stroke="#333333" stroke-width="0.396073"/>
<path d="M26.5312 43.8047V36.4332" stroke="#333333" stroke-width="0.396073"/>
<path d="M26.5859 42.5603L28.1213 41.332" stroke="#333333" stroke-width="0.396073"/>
<path d="M26.5859 39.0916L25.1529 37.8633" stroke="#333333" stroke-width="0.396073"/>
</svg>
