<svg width="38" height="49" viewBox="0 0 38 49" fill="none" xmlns="http://www.w3.org/2000/svg">
<circle cx="17.9225" cy="28.5943" r="11.0084" fill="#45AD9A"/>
<circle cx="19.522" cy="5.39313" r="1.89313" stroke="#333333"/>
<line y1="-0.5" x2="27.5364" y2="-0.5" transform="matrix(0.635708 -0.771929 0.828555 0.559908 9.83594 42.9922)" stroke="#333333"/>
<path d="M15.6671 34.6765L23.2478 35.9069" stroke="#333333"/>
<path d="M22.9639 25.6116L19.7595 20.506" stroke="#333333"/>
<path d="M5.9454 25.6099C2.07051 33.2495 5.02545 39.1174 5.9454 46.762C14.0772 44.3723 23.3209 39.714 25.669 37.4223C29.4313 33.7506 30.764 31.7055 32.7143 28.0827C34.3902 24.9695 35.2515 16.7454 34.1232 10.293C29.9638 14.7002 19.2763 16.6317 18.1558 16.9641C10.0968 19.3552 8.82548 20.6923 5.9454 25.6099Z" stroke="#333333"/>
</svg>
