<svg width="53" height="49" viewBox="0 0 53 49" fill="none" xmlns="http://www.w3.org/2000/svg">
<circle cx="21.9504" cy="29.9582" r="12.2316" fill="#45AD9A"/>
<circle cx="13.9989" cy="10.659" r="2.15904" stroke="#333333"/>
<line y1="-0.5" x2="23.3113" y2="-0.5" transform="matrix(0.635708 -0.771929 0.828555 0.559908 26.0039 38.8477)" stroke="#333333"/>
<path d="M30.9402 31.8045L37.3577 32.8461" stroke="#333333"/>
<path d="M37.1206 24.1304L34.4078 19.8081" stroke="#333333"/>
<path d="M22.7133 24.1766C19.433 30.6278 21.9345 35.5829 22.7133 42.0383C29.5974 40.0204 37.4228 36.0867 39.4106 34.1515C42.5956 31.0509 43.7238 29.324 45.3749 26.2647C46.7937 23.6358 47.5228 16.6909 46.5676 11.2422C43.0464 14.9639 33.9988 16.5949 33.0502 16.8756C26.2278 18.8947 25.1515 20.0239 22.7133 24.1766Z" stroke="#333333"/>
<line y1="-0.5" x2="9.81529" y2="-0.5" transform="matrix(-0.815552 -0.578683 -0.65317 0.757211 16.9883 37.9531)" stroke="#333333"/>
<path d="M14.1957 35.6331L11.7025 36.7634" stroke="#333333"/>
<path d="M11.4997 33.4994L12.4699 31.1415" stroke="#333333"/>
<path d="M16.6789 31.6401C18.7748 33.8863 18.2645 36.1863 18.6469 38.8988C15.5177 38.8669 11.78 38.1642 10.7274 37.6053C9.04091 36.7099 8.37422 36.1373 7.33998 35.0831C6.45125 34.1772 5.3782 31.4384 5.18119 29.1148C7.0781 30.2241 11.0782 29.8511 11.5097 29.8566C14.613 29.8961 15.1918 30.2317 16.6789 31.6401Z" stroke="#333333"/>
</svg>
