<svg width="53" height="49" viewBox="0 0 53 49" fill="none" xmlns="http://www.w3.org/2000/svg">
<circle cx="23.9543" cy="30.9582" r="12.2316" fill="#45AD9A"/>
<circle cx="30.663" cy="4.65904" r="2.15904" stroke="#333333"/>
<line y1="-0.5" x2="24.7962" y2="-0.5" transform="matrix(0.635708 -0.771929 0.828555 0.559908 29.6719 41.6055)" stroke="#333333"/>
<path d="M34.9229 34.1152L41.7492 35.2231" stroke="#333333"/>
<path d="M41.4937 25.951L38.6082 21.3534" stroke="#333333"/>
<path d="M25.782 25.86C22.2403 32.7729 24.9412 38.0826 25.782 45C33.2146 42.8376 41.6635 38.6224 43.8098 36.5488C47.2485 33.2263 48.4667 31.3757 50.2493 28.0976C51.7811 25.2805 52.5684 17.8387 51.5371 12C47.7353 15.988 37.9667 17.7358 36.9426 18.0366C29.5765 20.2002 28.4145 21.4102 25.782 25.86Z" stroke="#333333"/>
<line y1="-0.5" x2="9.81529" y2="-0.5" transform="matrix(-0.454945 -0.89052 -0.92953 0.368746 19.3477 26.3438)" stroke="#333333"/>
<path d="M17.9433 22.9932L15.2101 22.8407" stroke="#333333"/>
<path d="M17.1039 20.2846L18.6105 18.7527" stroke="#333333"/>
<path d="M21.9969 20.6014C22.8147 23.5627 21.2975 25.3651 20.3805 27.9464C17.6217 26.4693 14.6341 24.1159 13.9599 23.1332C12.8796 21.5587 12.5538 20.7425 12.1252 19.3292C11.7569 18.1148 12.0738 15.1904 12.975 13.0396C14.1428 14.9011 17.861 16.4226 18.2409 16.6272C20.9733 18.099 21.3309 18.6645 21.9969 20.6014Z" stroke="#333333"/>
<line y1="-0.5" x2="13.921" y2="-0.5" transform="matrix(-0.815552 -0.578683 -0.65317 0.757211 18.0039 42.3984)" stroke="#333333"/>
<path d="M14.0427 39.104L10.5066 40.7072" stroke="#333333"/>
<path d="M9.29019 35.6495L10.1783 32.7344" stroke="#333333"/>
<path d="M17.5662 33.4412C20.5388 36.6269 19.815 39.889 20.3574 43.7362C15.9192 43.6909 10.618 42.6942 9.12513 41.9016C6.73318 40.6317 5.78761 39.8195 4.32075 38.3243C3.06026 37.0394 1.53835 33.155 1.25893 29.8594C3.94932 31.4328 9.62269 30.9037 10.2347 30.9115C14.636 30.9675 15.457 31.4436 17.5662 33.4412Z" stroke="#333333"/>
</svg>
