<svg width="53" height="49" viewBox="0 0 53 49" fill="none" xmlns="http://www.w3.org/2000/svg">
<circle cx="24.9225" cy="28.5943" r="11.0084" fill="#45AD9A"/>
<circle cx="26.522" cy="5.39313" r="1.89313" stroke="#333333"/>
<line y1="-0.5" x2="27.5364" y2="-0.5" transform="matrix(0.635708 -0.771929 0.828555 0.559908 16.8359 42.9922)" stroke="#333333"/>
<path d="M22.6671 34.6765L30.2478 35.9069" stroke="#333333"/>
<path d="M29.9639 25.6116L26.7595 20.506" stroke="#333333"/>
<path d="M12.9454 25.6099C9.07051 33.2495 12.0254 39.1174 12.9454 46.762C21.0772 44.3723 30.3209 39.714 32.669 37.4223C36.4313 33.7506 37.764 31.7055 39.7143 28.0827C41.3902 24.9695 42.2515 16.7454 41.1232 10.293C36.9638 14.7002 26.2763 16.6317 25.1558 16.9641C17.0968 19.3552 15.8255 20.6923 12.9454 25.6099Z" stroke="#333333"/>
</svg>
